<svg xmlns="http://www.w3.org/2000/svg" width="1200" height="630" viewBox="0 0 1200 630" role="img" aria-label="Srihari K G AI · ML · Computer Vision">
<defs><linearGradient id="g" x1="0" y1="0" x2="1" y2="1">
<stop offset="0" stop-color="#0f766e"/><stop offset="1" stop-color="#1e1b4b"/>
</linearGradient></defs>
<rect width="1200" height="630" fill="url(#g)"/>
<circle cx="491" cy="36" r="5" fill="rgba(255,255,255,0.18)"/><circle cx="490" cy="289" r="3" fill="rgba(255,255,255,0.18)"/><circle cx="613" cy="593" r="2" fill="rgba(255,255,255,0.18)"/><circle cx="264" cy="150" r="2" fill="rgba(255,255,255,0.18)"/><circle cx="752" cy="242" r="4" fill="rgba(255,255,255,0.18)"/><circle cx="968" cy="381" r="3" fill="rgba(255,255,255,0.18)"/><circle cx="564" cy="47" r="4" fill="rgba(255,255,255,0.18)"/><circle cx="951" cy="328" r="3" fill="rgba(255,255,255,0.18)"/><circle cx="822" cy="85" r="4" fill="rgba(255,255,255,0.18)"/><circle cx="143" cy="613" r="5" fill="rgba(255,255,255,0.18)"/><circle cx="0" cy="581" r="3" fill="rgba(255,255,255,0.18)"/><circle cx="63" cy="344" r="5" fill="rgba(255,255,255,0.18)"/><circle cx="376" cy="395" r="2" fill="rgba(255,255,255,0.18)"/><circle cx="1161" cy="65" r="3" fill="rgba(255,255,255,0.18)"/><circle cx="435" cy="143" r="3" fill="rgba(255,255,255,0.18)"/><circle cx="144" cy="140" r="2" fill="rgba(255,255,255,0.18)"/><circle cx="79" cy="12" r="3" fill="rgba(255,255,255,0.18)"/><circle cx="1070" cy="18" r="3" fill="rgba(255,255,255,0.18)"/><circle cx="722" cy="384" r="3" fill="rgba(255,255,255,0.18)"/><circle cx="609" cy="484" r="3" fill="rgba(255,255,255,0.18)"/><circle cx="994" cy="397" r="4" fill="rgba(255,255,255,0.18)"/><circle cx="1081" cy="626" r="4" fill="rgba(255,255,255,0.18)"/><circle cx="358" cy="68" r="3" fill="rgba(255,255,255,0.18)"/><circle cx="440" cy="74" r="2" fill="rgba(255,255,255,0.18)"/><circle cx="887" cy="621" r="2" fill="rgba(255,255,255,0.18)"/><circle cx="1092" cy="50" r="3" fill="rgba(255,255,255,0.18)"/><circle cx="489" cy="333" r="3" fill="rgba(255,255,255,0.18)"/><circle cx="364" cy="464" r="2" fill="rgba(255,255,255,0.18)"/><text x="50%" y="277" text-anchor="middle" font-family="Sora, system-ui, sans-serif" font-size="64" font-weight="700" fill="rgba(255,255,255,0.92)">Srihari K G</text><text x="50%" y="353" text-anchor="middle" font-family="Sora, system-ui, sans-serif" font-size="64" font-weight="700" fill="rgba(255,255,255,0.92)">AI · ML · Computer Vision</text>
</svg>