<svg xmlns="http://www.w3.org/2000/svg" width="640" height="400" viewBox="0 0 640 400" role="img" aria-label="AlumSphere">
<defs><linearGradient id="g" x1="0" y1="0" x2="1" y2="1">
<stop offset="0" stop-color="#15803d"/><stop offset="1" stop-color="#052e16"/>
</linearGradient></defs>
<rect width="640" height="400" fill="url(#g)"/>
<circle cx="235" cy="363" r="2" fill="rgba(255,255,255,0.18)"/><circle cx="185" cy="269" r="2" fill="rgba(255,255,255,0.18)"/><circle cx="624" cy="276" r="3" fill="rgba(255,255,255,0.18)"/><circle cx="220" cy="0" r="2" fill="rgba(255,255,255,0.18)"/><circle cx="277" cy="174" r="5" fill="rgba(255,255,255,0.18)"/><circle cx="199" cy="187" r="5" fill="rgba(255,255,255,0.18)"/><circle cx="515" cy="74" r="4" fill="rgba(255,255,255,0.18)"/><circle cx="442" cy="193" r="5" fill="rgba(255,255,255,0.18)"/><circle cx="299" cy="358" r="5" fill="rgba(255,255,255,0.18)"/><circle cx="15" cy="106" r="2" fill="rgba(255,255,255,0.18)"/><circle cx="92" cy="319" r="2" fill="rgba(255,255,255,0.18)"/><circle cx="444" cy="246" r="4" fill="rgba(255,255,255,0.18)"/><circle cx="580" cy="214" r="4" fill="rgba(255,255,255,0.18)"/><circle cx="410" cy="168" r="5" fill="rgba(255,255,255,0.18)"/><circle cx="123" cy="330" r="2" fill="rgba(255,255,255,0.18)"/><circle cx="117" cy="355" r="2" fill="rgba(255,255,255,0.18)"/><circle cx="299" cy="334" r="4" fill="rgba(255,255,255,0.18)"/><circle cx="598" cy="42" r="4" fill="rgba(255,255,255,0.18)"/><circle cx="572" cy="135" r="3" fill="rgba(255,255,255,0.18)"/><circle cx="341" cy="386" r="3" fill="rgba(255,255,255,0.18)"/><circle cx="224" cy="346" r="3" fill="rgba(255,255,255,0.18)"/><circle cx="429" cy="348" r="2" fill="rgba(255,255,255,0.18)"/><circle cx="411" cy="240" r="5" fill="rgba(255,255,255,0.18)"/><circle cx="183" cy="13" r="3" fill="rgba(255,255,255,0.18)"/><circle cx="271" cy="203" r="4" fill="rgba(255,255,255,0.18)"/><circle cx="264" cy="132" r="5" fill="rgba(255,255,255,0.18)"/><circle cx="428" cy="154" r="5" fill="rgba(255,255,255,0.18)"/><circle cx="188" cy="326" r="5" fill="rgba(255,255,255,0.18)"/><text x="50%" y="200" text-anchor="middle" font-family="Sora, system-ui, sans-serif" font-size="42" font-weight="700" fill="rgba(255,255,255,0.92)">AlumSphere</text>
</svg>