<svg xmlns="http://www.w3.org/2000/svg" width="640" height="400" viewBox="0 0 640 400" role="img" aria-label="Blog Website">
<defs><linearGradient id="g" x1="0" y1="0" x2="1" y2="1">
<stop offset="0" stop-color="#a21caf"/><stop offset="1" stop-color="#4a044e"/>
</linearGradient></defs>
<rect width="640" height="400" fill="url(#g)"/>
<circle cx="281" cy="165" r="3" fill="rgba(255,255,255,0.18)"/><circle cx="452" cy="392" r="2" fill="rgba(255,255,255,0.18)"/><circle cx="487" cy="0" r="4" fill="rgba(255,255,255,0.18)"/><circle cx="387" cy="262" r="4" fill="rgba(255,255,255,0.18)"/><circle cx="616" cy="324" r="5" fill="rgba(255,255,255,0.18)"/><circle cx="568" cy="399" r="5" fill="rgba(255,255,255,0.18)"/><circle cx="166" cy="361" r="5" fill="rgba(255,255,255,0.18)"/><circle cx="227" cy="224" r="4" fill="rgba(255,255,255,0.18)"/><circle cx="204" cy="244" r="3" fill="rgba(255,255,255,0.18)"/><circle cx="452" cy="215" r="2" fill="rgba(255,255,255,0.18)"/><circle cx="509" cy="303" r="5" fill="rgba(255,255,255,0.18)"/><circle cx="27" cy="78" r="4" fill="rgba(255,255,255,0.18)"/><circle cx="283" cy="393" r="3" fill="rgba(255,255,255,0.18)"/><circle cx="159" cy="284" r="4" fill="rgba(255,255,255,0.18)"/><circle cx="489" cy="314" r="2" fill="rgba(255,255,255,0.18)"/><circle cx="123" cy="134" r="2" fill="rgba(255,255,255,0.18)"/><circle cx="551" cy="43" r="2" fill="rgba(255,255,255,0.18)"/><circle cx="35" cy="7" r="3" fill="rgba(255,255,255,0.18)"/><circle cx="375" cy="133" r="2" fill="rgba(255,255,255,0.18)"/><circle cx="466" cy="203" r="2" fill="rgba(255,255,255,0.18)"/><circle cx="449" cy="27" r="4" fill="rgba(255,255,255,0.18)"/><circle cx="234" cy="340" r="4" fill="rgba(255,255,255,0.18)"/><circle cx="376" cy="77" r="5" fill="rgba(255,255,255,0.18)"/><circle cx="618" cy="27" r="5" fill="rgba(255,255,255,0.18)"/><circle cx="54" cy="293" r="5" fill="rgba(255,255,255,0.18)"/><circle cx="319" cy="189" r="5" fill="rgba(255,255,255,0.18)"/><circle cx="123" cy="382" r="5" fill="rgba(255,255,255,0.18)"/><circle cx="563" cy="176" r="2" fill="rgba(255,255,255,0.18)"/><text x="50%" y="200" text-anchor="middle" font-family="Sora, system-ui, sans-serif" font-size="42" font-weight="700" fill="rgba(255,255,255,0.92)">Blog Website</text>
</svg>