<svg xmlns="http://www.w3.org/2000/svg" width="640" height="400" viewBox="0 0 640 400" role="img" aria-label="Clap Pattern Detection">
<defs><linearGradient id="g" x1="0" y1="0" x2="1" y2="1">
<stop offset="0" stop-color="#be185d"/><stop offset="1" stop-color="#500724"/>
</linearGradient></defs>
<rect width="640" height="400" fill="url(#g)"/>
<circle cx="93" cy="127" r="5" fill="rgba(255,255,255,0.18)"/><circle cx="397" cy="1" r="4" fill="rgba(255,255,255,0.18)"/><circle cx="42" cy="173" r="4" fill="rgba(255,255,255,0.18)"/><circle cx="413" cy="210" r="2" fill="rgba(255,255,255,0.18)"/><circle cx="313" cy="279" r="2" fill="rgba(255,255,255,0.18)"/><circle cx="317" cy="13" r="2" fill="rgba(255,255,255,0.18)"/><circle cx="379" cy="142" r="5" fill="rgba(255,255,255,0.18)"/><circle cx="18" cy="337" r="5" fill="rgba(255,255,255,0.18)"/><circle cx="164" cy="258" r="4" fill="rgba(255,255,255,0.18)"/><circle cx="431" cy="346" r="4" fill="rgba(255,255,255,0.18)"/><circle cx="112" cy="108" r="3" fill="rgba(255,255,255,0.18)"/><circle cx="16" cy="321" r="3" fill="rgba(255,255,255,0.18)"/><circle cx="224" cy="4" r="3" fill="rgba(255,255,255,0.18)"/><circle cx="479" cy="268" r="4" fill="rgba(255,255,255,0.18)"/><circle cx="495" cy="102" r="2" fill="rgba(255,255,255,0.18)"/><circle cx="277" cy="344" r="5" fill="rgba(255,255,255,0.18)"/><circle cx="334" cy="26" r="4" fill="rgba(255,255,255,0.18)"/><circle cx="117" cy="312" r="4" fill="rgba(255,255,255,0.18)"/><circle cx="171" cy="169" r="5" fill="rgba(255,255,255,0.18)"/><circle cx="29" cy="69" r="4" fill="rgba(255,255,255,0.18)"/><circle cx="138" cy="271" r="3" fill="rgba(255,255,255,0.18)"/><circle cx="130" cy="162" r="5" fill="rgba(255,255,255,0.18)"/><circle cx="208" cy="39" r="3" fill="rgba(255,255,255,0.18)"/><circle cx="505" cy="147" r="2" fill="rgba(255,255,255,0.18)"/><circle cx="362" cy="233" r="2" fill="rgba(255,255,255,0.18)"/><circle cx="392" cy="355" r="2" fill="rgba(255,255,255,0.18)"/><circle cx="571" cy="272" r="4" fill="rgba(255,255,255,0.18)"/><circle cx="578" cy="64" r="3" fill="rgba(255,255,255,0.18)"/><text x="50%" y="175" text-anchor="middle" font-family="Sora, system-ui, sans-serif" font-size="42" font-weight="700" fill="rgba(255,255,255,0.92)">Clap Pattern</text><text x="50%" y="225" text-anchor="middle" font-family="Sora, system-ui, sans-serif" font-size="42" font-weight="700" fill="rgba(255,255,255,0.92)">Detection</text>
</svg>