<svg xmlns="http://www.w3.org/2000/svg" width="640" height="400" viewBox="0 0 640 400" role="img" aria-label="Depression Detection">
<defs><linearGradient id="g" x1="0" y1="0" x2="1" y2="1">
<stop offset="0" stop-color="#7c3aed"/><stop offset="1" stop-color="#2e1065"/>
</linearGradient></defs>
<rect width="640" height="400" fill="url(#g)"/>
<circle cx="92" cy="213" r="4" fill="rgba(255,255,255,0.18)"/><circle cx="77" cy="151" r="2" fill="rgba(255,255,255,0.18)"/><circle cx="480" cy="284" r="2" fill="rgba(255,255,255,0.18)"/><circle cx="102" cy="285" r="3" fill="rgba(255,255,255,0.18)"/><circle cx="29" cy="145" r="4" fill="rgba(255,255,255,0.18)"/><circle cx="551" cy="13" r="5" fill="rgba(255,255,255,0.18)"/><circle cx="60" cy="34" r="4" fill="rgba(255,255,255,0.18)"/><circle cx="518" cy="337" r="4" fill="rgba(255,255,255,0.18)"/><circle cx="388" cy="67" r="2" fill="rgba(255,255,255,0.18)"/><circle cx="236" cy="42" r="4" fill="rgba(255,255,255,0.18)"/><circle cx="553" cy="301" r="5" fill="rgba(255,255,255,0.18)"/><circle cx="149" cy="1" r="2" fill="rgba(255,255,255,0.18)"/><circle cx="206" cy="398" r="5" fill="rgba(255,255,255,0.18)"/><circle cx="159" cy="36" r="4" fill="rgba(255,255,255,0.18)"/><circle cx="190" cy="75" r="4" fill="rgba(255,255,255,0.18)"/><circle cx="427" cy="219" r="2" fill="rgba(255,255,255,0.18)"/><circle cx="233" cy="263" r="3" fill="rgba(255,255,255,0.18)"/><circle cx="310" cy="321" r="3" fill="rgba(255,255,255,0.18)"/><circle cx="59" cy="317" r="5" fill="rgba(255,255,255,0.18)"/><circle cx="325" cy="10" r="2" fill="rgba(255,255,255,0.18)"/><circle cx="158" cy="129" r="2" fill="rgba(255,255,255,0.18)"/><circle cx="456" cy="258" r="2" fill="rgba(255,255,255,0.18)"/><circle cx="619" cy="150" r="3" fill="rgba(255,255,255,0.18)"/><circle cx="414" cy="17" r="3" fill="rgba(255,255,255,0.18)"/><circle cx="76" cy="338" r="2" fill="rgba(255,255,255,0.18)"/><circle cx="164" cy="35" r="5" fill="rgba(255,255,255,0.18)"/><circle cx="26" cy="290" r="5" fill="rgba(255,255,255,0.18)"/><circle cx="47" cy="363" r="3" fill="rgba(255,255,255,0.18)"/><text x="50%" y="175" text-anchor="middle" font-family="Sora, system-ui, sans-serif" font-size="42" font-weight="700" fill="rgba(255,255,255,0.92)">Depression</text><text x="50%" y="225" text-anchor="middle" font-family="Sora, system-ui, sans-serif" font-size="42" font-weight="700" fill="rgba(255,255,255,0.92)">Detection</text>
</svg>