<svg xmlns="http://www.w3.org/2000/svg" width="640" height="400" viewBox="0 0 640 400" role="img" aria-label="Texture-Aware Pruning">
<defs><linearGradient id="g" x1="0" y1="0" x2="1" y2="1">
<stop offset="0" stop-color="#115e59"/><stop offset="1" stop-color="#1e1b4b"/>
</linearGradient></defs>
<rect width="640" height="400" fill="url(#g)"/>
<circle cx="187" cy="229" r="3" fill="rgba(255,255,255,0.18)"/><circle cx="38" cy="156" r="3" fill="rgba(255,255,255,0.18)"/><circle cx="141" cy="25" r="2" fill="rgba(255,255,255,0.18)"/><circle cx="446" cy="296" r="4" fill="rgba(255,255,255,0.18)"/><circle cx="191" cy="301" r="5" fill="rgba(255,255,255,0.18)"/><circle cx="619" cy="353" r="2" fill="rgba(255,255,255,0.18)"/><circle cx="69" cy="53" r="2" fill="rgba(255,255,255,0.18)"/><circle cx="118" cy="326" r="4" fill="rgba(255,255,255,0.18)"/><circle cx="567" cy="129" r="4" fill="rgba(255,255,255,0.18)"/><circle cx="434" cy="258" r="5" fill="rgba(255,255,255,0.18)"/><circle cx="38" cy="70" r="4" fill="rgba(255,255,255,0.18)"/><circle cx="44" cy="144" r="3" fill="rgba(255,255,255,0.18)"/><circle cx="149" cy="181" r="5" fill="rgba(255,255,255,0.18)"/><circle cx="484" cy="270" r="4" fill="rgba(255,255,255,0.18)"/><circle cx="475" cy="148" r="2" fill="rgba(255,255,255,0.18)"/><circle cx="440" cy="385" r="4" fill="rgba(255,255,255,0.18)"/><circle cx="440" cy="274" r="4" fill="rgba(255,255,255,0.18)"/><circle cx="495" cy="67" r="3" fill="rgba(255,255,255,0.18)"/><circle cx="147" cy="312" r="2" fill="rgba(255,255,255,0.18)"/><circle cx="580" cy="394" r="4" fill="rgba(255,255,255,0.18)"/><circle cx="214" cy="158" r="3" fill="rgba(255,255,255,0.18)"/><circle cx="555" cy="359" r="3" fill="rgba(255,255,255,0.18)"/><circle cx="296" cy="125" r="3" fill="rgba(255,255,255,0.18)"/><circle cx="190" cy="363" r="5" fill="rgba(255,255,255,0.18)"/><circle cx="173" cy="196" r="3" fill="rgba(255,255,255,0.18)"/><circle cx="486" cy="385" r="4" fill="rgba(255,255,255,0.18)"/><circle cx="219" cy="215" r="3" fill="rgba(255,255,255,0.18)"/><circle cx="417" cy="248" r="2" fill="rgba(255,255,255,0.18)"/><text x="50%" y="175" text-anchor="middle" font-family="Sora, system-ui, sans-serif" font-size="42" font-weight="700" fill="rgba(255,255,255,0.92)">Texture-Aware</text><text x="50%" y="225" text-anchor="middle" font-family="Sora, system-ui, sans-serif" font-size="42" font-weight="700" fill="rgba(255,255,255,0.92)">Pruning</text>
</svg>