<svg xmlns="http://www.w3.org/2000/svg" width="640" height="400" viewBox="0 0 640 400" role="img" aria-label="3D Gaussian Splatting">
<defs><linearGradient id="g" x1="0" y1="0" x2="1" y2="1">
<stop offset="0" stop-color="#0f766e"/><stop offset="1" stop-color="#134e4a"/>
</linearGradient></defs>
<rect width="640" height="400" fill="url(#g)"/>
<circle cx="371" cy="279" r="2" fill="rgba(255,255,255,0.18)"/><circle cx="556" cy="59" r="5" fill="rgba(255,255,255,0.18)"/><circle cx="48" cy="10" r="2" fill="rgba(255,255,255,0.18)"/><circle cx="404" cy="143" r="4" fill="rgba(255,255,255,0.18)"/><circle cx="300" cy="121" r="5" fill="rgba(255,255,255,0.18)"/><circle cx="303" cy="98" r="2" fill="rgba(255,255,255,0.18)"/><circle cx="33" cy="255" r="3" fill="rgba(255,255,255,0.18)"/><circle cx="548" cy="154" r="5" fill="rgba(255,255,255,0.18)"/><circle cx="541" cy="305" r="2" fill="rgba(255,255,255,0.18)"/><circle cx="601" cy="124" r="4" fill="rgba(255,255,255,0.18)"/><circle cx="499" cy="271" r="3" fill="rgba(255,255,255,0.18)"/><circle cx="472" cy="24" r="4" fill="rgba(255,255,255,0.18)"/><circle cx="45" cy="332" r="3" fill="rgba(255,255,255,0.18)"/><circle cx="582" cy="309" r="3" fill="rgba(255,255,255,0.18)"/><circle cx="629" cy="177" r="2" fill="rgba(255,255,255,0.18)"/><circle cx="277" cy="115" r="2" fill="rgba(255,255,255,0.18)"/><circle cx="546" cy="152" r="4" fill="rgba(255,255,255,0.18)"/><circle cx="142" cy="77" r="4" fill="rgba(255,255,255,0.18)"/><circle cx="546" cy="395" r="3" fill="rgba(255,255,255,0.18)"/><circle cx="615" cy="281" r="2" fill="rgba(255,255,255,0.18)"/><circle cx="20" cy="389" r="3" fill="rgba(255,255,255,0.18)"/><circle cx="71" cy="151" r="5" fill="rgba(255,255,255,0.18)"/><circle cx="485" cy="271" r="3" fill="rgba(255,255,255,0.18)"/><circle cx="640" cy="262" r="4" fill="rgba(255,255,255,0.18)"/><circle cx="594" cy="32" r="2" fill="rgba(255,255,255,0.18)"/><circle cx="175" cy="168" r="3" fill="rgba(255,255,255,0.18)"/><circle cx="425" cy="220" r="2" fill="rgba(255,255,255,0.18)"/><circle cx="308" cy="79" r="5" fill="rgba(255,255,255,0.18)"/><text x="50%" y="175" text-anchor="middle" font-family="Sora, system-ui, sans-serif" font-size="42" font-weight="700" fill="rgba(255,255,255,0.92)">3D Gaussian</text><text x="50%" y="225" text-anchor="middle" font-family="Sora, system-ui, sans-serif" font-size="42" font-weight="700" fill="rgba(255,255,255,0.92)">Splatting</text>
</svg>