<svg xmlns="http://www.w3.org/2000/svg" width="640" height="400" viewBox="0 0 640 400" role="img" aria-label="3D Editing Latent Steering">
<defs><linearGradient id="g" x1="0" y1="0" x2="1" y2="1">
<stop offset="0" stop-color="#4f46e5"/><stop offset="1" stop-color="#1e1b4b"/>
</linearGradient></defs>
<rect width="640" height="400" fill="url(#g)"/>
<circle cx="617" cy="335" r="2" fill="rgba(255,255,255,0.18)"/><circle cx="16" cy="163" r="2" fill="rgba(255,255,255,0.18)"/><circle cx="187" cy="29" r="2" fill="rgba(255,255,255,0.18)"/><circle cx="538" cy="79" r="3" fill="rgba(255,255,255,0.18)"/><circle cx="298" cy="252" r="5" fill="rgba(255,255,255,0.18)"/><circle cx="510" cy="34" r="2" fill="rgba(255,255,255,0.18)"/><circle cx="93" cy="90" r="3" fill="rgba(255,255,255,0.18)"/><circle cx="207" cy="211" r="5" fill="rgba(255,255,255,0.18)"/><circle cx="226" cy="52" r="2" fill="rgba(255,255,255,0.18)"/><circle cx="466" cy="180" r="3" fill="rgba(255,255,255,0.18)"/><circle cx="374" cy="256" r="5" fill="rgba(255,255,255,0.18)"/><circle cx="333" cy="17" r="4" fill="rgba(255,255,255,0.18)"/><circle cx="307" cy="313" r="5" fill="rgba(255,255,255,0.18)"/><circle cx="0" cy="23" r="3" fill="rgba(255,255,255,0.18)"/><circle cx="344" cy="294" r="3" fill="rgba(255,255,255,0.18)"/><circle cx="291" cy="130" r="5" fill="rgba(255,255,255,0.18)"/><circle cx="627" cy="393" r="2" fill="rgba(255,255,255,0.18)"/><circle cx="215" cy="296" r="4" fill="rgba(255,255,255,0.18)"/><circle cx="146" cy="42" r="2" fill="rgba(255,255,255,0.18)"/><circle cx="476" cy="141" r="5" fill="rgba(255,255,255,0.18)"/><circle cx="593" cy="132" r="5" fill="rgba(255,255,255,0.18)"/><circle cx="351" cy="183" r="4" fill="rgba(255,255,255,0.18)"/><circle cx="487" cy="370" r="5" fill="rgba(255,255,255,0.18)"/><circle cx="107" cy="331" r="2" fill="rgba(255,255,255,0.18)"/><circle cx="160" cy="30" r="4" fill="rgba(255,255,255,0.18)"/><circle cx="40" cy="140" r="3" fill="rgba(255,255,255,0.18)"/><circle cx="219" cy="344" r="3" fill="rgba(255,255,255,0.18)"/><circle cx="21" cy="323" r="5" fill="rgba(255,255,255,0.18)"/><text x="50%" y="175" text-anchor="middle" font-family="Sora, system-ui, sans-serif" font-size="42" font-weight="700" fill="rgba(255,255,255,0.92)">3D Editing</text><text x="50%" y="225" text-anchor="middle" font-family="Sora, system-ui, sans-serif" font-size="42" font-weight="700" fill="rgba(255,255,255,0.92)">Latent Steering</text>
</svg>