<svg xmlns="http://www.w3.org/2000/svg" width="640" height="400" viewBox="0 0 640 400" role="img" aria-label="Moisture Minds">
<defs><linearGradient id="g" x1="0" y1="0" x2="1" y2="1">
<stop offset="0" stop-color="#65a30d"/><stop offset="1" stop-color="#1a2e05"/>
</linearGradient></defs>
<rect width="640" height="400" fill="url(#g)"/>
<circle cx="282" cy="3" r="3" fill="rgba(255,255,255,0.18)"/><circle cx="332" cy="170" r="4" fill="rgba(255,255,255,0.18)"/><circle cx="633" cy="272" r="3" fill="rgba(255,255,255,0.18)"/><circle cx="461" cy="299" r="2" fill="rgba(255,255,255,0.18)"/><circle cx="133" cy="261" r="4" fill="rgba(255,255,255,0.18)"/><circle cx="343" cy="88" r="4" fill="rgba(255,255,255,0.18)"/><circle cx="239" cy="34" r="4" fill="rgba(255,255,255,0.18)"/><circle cx="159" cy="331" r="2" fill="rgba(255,255,255,0.18)"/><circle cx="552" cy="37" r="4" fill="rgba(255,255,255,0.18)"/><circle cx="13" cy="165" r="5" fill="rgba(255,255,255,0.18)"/><circle cx="608" cy="37" r="4" fill="rgba(255,255,255,0.18)"/><circle cx="550" cy="15" r="4" fill="rgba(255,255,255,0.18)"/><circle cx="357" cy="269" r="5" fill="rgba(255,255,255,0.18)"/><circle cx="555" cy="50" r="4" fill="rgba(255,255,255,0.18)"/><circle cx="203" cy="338" r="3" fill="rgba(255,255,255,0.18)"/><circle cx="113" cy="327" r="3" fill="rgba(255,255,255,0.18)"/><circle cx="83" cy="105" r="4" fill="rgba(255,255,255,0.18)"/><circle cx="409" cy="153" r="5" fill="rgba(255,255,255,0.18)"/><circle cx="585" cy="326" r="4" fill="rgba(255,255,255,0.18)"/><circle cx="206" cy="63" r="5" fill="rgba(255,255,255,0.18)"/><circle cx="134" cy="369" r="5" fill="rgba(255,255,255,0.18)"/><circle cx="640" cy="203" r="5" fill="rgba(255,255,255,0.18)"/><circle cx="608" cy="254" r="4" fill="rgba(255,255,255,0.18)"/><circle cx="329" cy="195" r="2" fill="rgba(255,255,255,0.18)"/><circle cx="69" cy="227" r="4" fill="rgba(255,255,255,0.18)"/><circle cx="169" cy="165" r="2" fill="rgba(255,255,255,0.18)"/><circle cx="314" cy="126" r="2" fill="rgba(255,255,255,0.18)"/><circle cx="132" cy="9" r="5" fill="rgba(255,255,255,0.18)"/><text x="50%" y="200" text-anchor="middle" font-family="Sora, system-ui, sans-serif" font-size="42" font-weight="700" fill="rgba(255,255,255,0.92)">Moisture Minds</text>
</svg>