<svg xmlns="http://www.w3.org/2000/svg" width="640" height="400" viewBox="0 0 640 400" role="img" aria-label="Sanskrit NLP">
<defs><linearGradient id="g" x1="0" y1="0" x2="1" y2="1">
<stop offset="0" stop-color="#b45309"/><stop offset="1" stop-color="#451a03"/>
</linearGradient></defs>
<rect width="640" height="400" fill="url(#g)"/>
<circle cx="418" cy="364" r="3" fill="rgba(255,255,255,0.18)"/><circle cx="436" cy="398" r="3" fill="rgba(255,255,255,0.18)"/><circle cx="240" cy="155" r="5" fill="rgba(255,255,255,0.18)"/><circle cx="513" cy="332" r="3" fill="rgba(255,255,255,0.18)"/><circle cx="449" cy="112" r="2" fill="rgba(255,255,255,0.18)"/><circle cx="46" cy="65" r="4" fill="rgba(255,255,255,0.18)"/><circle cx="125" cy="165" r="3" fill="rgba(255,255,255,0.18)"/><circle cx="443" cy="190" r="5" fill="rgba(255,255,255,0.18)"/><circle cx="538" cy="231" r="5" fill="rgba(255,255,255,0.18)"/><circle cx="62" cy="16" r="2" fill="rgba(255,255,255,0.18)"/><circle cx="460" cy="165" r="5" fill="rgba(255,255,255,0.18)"/><circle cx="237" cy="224" r="4" fill="rgba(255,255,255,0.18)"/><circle cx="241" cy="32" r="3" fill="rgba(255,255,255,0.18)"/><circle cx="134" cy="137" r="2" fill="rgba(255,255,255,0.18)"/><circle cx="336" cy="279" r="3" fill="rgba(255,255,255,0.18)"/><circle cx="191" cy="111" r="4" fill="rgba(255,255,255,0.18)"/><circle cx="512" cy="310" r="4" fill="rgba(255,255,255,0.18)"/><circle cx="547" cy="168" r="2" fill="rgba(255,255,255,0.18)"/><circle cx="464" cy="295" r="3" fill="rgba(255,255,255,0.18)"/><circle cx="147" cy="53" r="4" fill="rgba(255,255,255,0.18)"/><circle cx="465" cy="98" r="3" fill="rgba(255,255,255,0.18)"/><circle cx="214" cy="84" r="3" fill="rgba(255,255,255,0.18)"/><circle cx="356" cy="255" r="4" fill="rgba(255,255,255,0.18)"/><circle cx="67" cy="59" r="5" fill="rgba(255,255,255,0.18)"/><circle cx="211" cy="63" r="2" fill="rgba(255,255,255,0.18)"/><circle cx="246" cy="9" r="3" fill="rgba(255,255,255,0.18)"/><circle cx="514" cy="314" r="5" fill="rgba(255,255,255,0.18)"/><circle cx="367" cy="198" r="5" fill="rgba(255,255,255,0.18)"/><text x="50%" y="200" text-anchor="middle" font-family="Sora, system-ui, sans-serif" font-size="42" font-weight="700" fill="rgba(255,255,255,0.92)">Sanskrit NLP</text>
</svg>