<svg xmlns="http://www.w3.org/2000/svg" width="640" height="400" viewBox="0 0 640 400" role="img" aria-label="SVD-CAM Explainable AI">
<defs><linearGradient id="g" x1="0" y1="0" x2="1" y2="1">
<stop offset="0" stop-color="#0e7490"/><stop offset="1" stop-color="#164e63"/>
</linearGradient></defs>
<rect width="640" height="400" fill="url(#g)"/>
<circle cx="306" cy="399" r="4" fill="rgba(255,255,255,0.18)"/><circle cx="615" cy="314" r="5" fill="rgba(255,255,255,0.18)"/><circle cx="43" cy="215" r="3" fill="rgba(255,255,255,0.18)"/><circle cx="65" cy="397" r="3" fill="rgba(255,255,255,0.18)"/><circle cx="629" cy="247" r="5" fill="rgba(255,255,255,0.18)"/><circle cx="31" cy="176" r="5" fill="rgba(255,255,255,0.18)"/><circle cx="14" cy="3" r="5" fill="rgba(255,255,255,0.18)"/><circle cx="236" cy="216" r="3" fill="rgba(255,255,255,0.18)"/><circle cx="418" cy="119" r="5" fill="rgba(255,255,255,0.18)"/><circle cx="193" cy="15" r="2" fill="rgba(255,255,255,0.18)"/><circle cx="451" cy="264" r="5" fill="rgba(255,255,255,0.18)"/><circle cx="499" cy="93" r="2" fill="rgba(255,255,255,0.18)"/><circle cx="339" cy="299" r="4" fill="rgba(255,255,255,0.18)"/><circle cx="332" cy="68" r="3" fill="rgba(255,255,255,0.18)"/><circle cx="5" cy="52" r="3" fill="rgba(255,255,255,0.18)"/><circle cx="633" cy="33" r="3" fill="rgba(255,255,255,0.18)"/><circle cx="469" cy="255" r="5" fill="rgba(255,255,255,0.18)"/><circle cx="551" cy="143" r="5" fill="rgba(255,255,255,0.18)"/><circle cx="330" cy="298" r="5" fill="rgba(255,255,255,0.18)"/><circle cx="428" cy="30" r="2" fill="rgba(255,255,255,0.18)"/><circle cx="77" cy="209" r="5" fill="rgba(255,255,255,0.18)"/><circle cx="329" cy="113" r="3" fill="rgba(255,255,255,0.18)"/><circle cx="366" cy="284" r="3" fill="rgba(255,255,255,0.18)"/><circle cx="224" cy="140" r="5" fill="rgba(255,255,255,0.18)"/><circle cx="421" cy="172" r="2" fill="rgba(255,255,255,0.18)"/><circle cx="486" cy="168" r="4" fill="rgba(255,255,255,0.18)"/><circle cx="562" cy="254" r="4" fill="rgba(255,255,255,0.18)"/><circle cx="257" cy="5" r="4" fill="rgba(255,255,255,0.18)"/><text x="50%" y="175" text-anchor="middle" font-family="Sora, system-ui, sans-serif" font-size="42" font-weight="700" fill="rgba(255,255,255,0.92)">SVD-CAM</text><text x="50%" y="225" text-anchor="middle" font-family="Sora, system-ui, sans-serif" font-size="42" font-weight="700" fill="rgba(255,255,255,0.92)">Explainable AI</text>
</svg>