<svg xmlns="http://www.w3.org/2000/svg" width="640" height="400" viewBox="0 0 640 400" role="img" aria-label="Vision Vault">
<defs><linearGradient id="g" x1="0" y1="0" x2="1" y2="1">
<stop offset="0" stop-color="#0369a1"/><stop offset="1" stop-color="#082f49"/>
</linearGradient></defs>
<rect width="640" height="400" fill="url(#g)"/>
<circle cx="555" cy="89" r="3" fill="rgba(255,255,255,0.18)"/><circle cx="274" cy="99" r="4" fill="rgba(255,255,255,0.18)"/><circle cx="277" cy="390" r="3" fill="rgba(255,255,255,0.18)"/><circle cx="476" cy="29" r="5" fill="rgba(255,255,255,0.18)"/><circle cx="436" cy="272" r="2" fill="rgba(255,255,255,0.18)"/><circle cx="479" cy="104" r="3" fill="rgba(255,255,255,0.18)"/><circle cx="366" cy="85" r="3" fill="rgba(255,255,255,0.18)"/><circle cx="270" cy="180" r="4" fill="rgba(255,255,255,0.18)"/><circle cx="21" cy="236" r="2" fill="rgba(255,255,255,0.18)"/><circle cx="127" cy="370" r="4" fill="rgba(255,255,255,0.18)"/><circle cx="363" cy="371" r="5" fill="rgba(255,255,255,0.18)"/><circle cx="417" cy="30" r="3" fill="rgba(255,255,255,0.18)"/><circle cx="212" cy="193" r="2" fill="rgba(255,255,255,0.18)"/><circle cx="356" cy="308" r="2" fill="rgba(255,255,255,0.18)"/><circle cx="19" cy="267" r="3" fill="rgba(255,255,255,0.18)"/><circle cx="61" cy="248" r="3" fill="rgba(255,255,255,0.18)"/><circle cx="159" cy="264" r="2" fill="rgba(255,255,255,0.18)"/><circle cx="108" cy="20" r="3" fill="rgba(255,255,255,0.18)"/><circle cx="291" cy="339" r="4" fill="rgba(255,255,255,0.18)"/><circle cx="483" cy="305" r="2" fill="rgba(255,255,255,0.18)"/><circle cx="545" cy="391" r="3" fill="rgba(255,255,255,0.18)"/><circle cx="571" cy="374" r="3" fill="rgba(255,255,255,0.18)"/><circle cx="38" cy="141" r="4" fill="rgba(255,255,255,0.18)"/><circle cx="88" cy="102" r="2" fill="rgba(255,255,255,0.18)"/><circle cx="446" cy="357" r="5" fill="rgba(255,255,255,0.18)"/><circle cx="42" cy="17" r="3" fill="rgba(255,255,255,0.18)"/><circle cx="631" cy="327" r="5" fill="rgba(255,255,255,0.18)"/><circle cx="188" cy="276" r="2" fill="rgba(255,255,255,0.18)"/><text x="50%" y="200" text-anchor="middle" font-family="Sora, system-ui, sans-serif" font-size="42" font-weight="700" fill="rgba(255,255,255,0.92)">Vision Vault</text>
</svg>